<svg width="46" height="10" viewBox="0 0 46 10" fill="none" xmlns="http://www.w3.org/2000/svg">
<path d="M6.748 0.719999C6.924 0.831999 6.976 1.076 6.904 1.452C6.888 1.508 6.82 1.92 6.7 2.688C6.692 2.76 6.668 2.932 6.628 3.204C6.588 3.468 6.556 3.656 6.532 3.768C6.516 3.88 6.488 4.044 6.448 4.26C6.408 4.468 6.364 4.656 6.316 4.824C6.276 4.984 6.232 5.148 6.184 5.316C6.144 5.436 6.068 5.752 5.956 6.264C5.788 7.024 5.492 7.632 5.068 8.088C4.564 8.624 3.968 8.904 3.28 8.928C2.52 8.952 1.924 8.708 1.492 8.196C1.068 7.7 0.908 7.092 1.012 6.372C1.068 6.036 1.184 5.696 1.36 5.352C1.512 5.04 1.724 4.9 1.996 4.932C2.14 4.956 2.26 5.02 2.356 5.124C2.452 5.228 2.5 5.352 2.5 5.496C2.5 5.6 2.456 5.732 2.368 5.892C2.304 6.02 2.252 6.164 2.212 6.324C2.108 6.692 2.116 7.004 2.236 7.26C2.324 7.452 2.56 7.616 2.944 7.752C3.104 7.816 3.252 7.82 3.388 7.764L3.892 7.56C4.036 7.48 4.148 7.404 4.228 7.332C4.492 7.092 4.708 6.796 4.876 6.444C4.924 6.34 4.984 6.108 5.056 5.748C5.08 5.628 5.116 5.448 5.164 5.208C5.22 4.96 5.26 4.776 5.284 4.656C5.38 4.192 5.54 3.208 5.764 1.704C5.58 1.736 5.32 1.756 4.984 1.764C4.648 1.764 4.44 1.768 4.36 1.776C4.328 1.776 4.276 1.78 4.204 1.788C4.14 1.788 4.076 1.788 4.012 1.788C3.956 1.78 3.904 1.764 3.856 1.74C3.68 1.66 3.564 1.524 3.508 1.332C3.452 1.1 3.52 0.908 3.712 0.756C3.792 0.684 3.912 0.644 4.072 0.636C4.24 0.628 4.328 0.632 4.336 0.648C4.352 0.655999 4.372 0.659999 4.396 0.659999C4.42 0.659999 4.444 0.659999 4.468 0.659999C4.5 0.651999 4.52 0.648 4.528 0.648C4.616 0.655999 4.692 0.659999 4.756 0.659999C4.932 0.668 5.088 0.68 5.224 0.696C5.304 0.704 5.476 0.7 5.74 0.684C5.98 0.668 6.18 0.659999 6.34 0.659999C6.556 0.668 6.692 0.688 6.748 0.719999ZM12.234 3.756C12.242 3.796 12.242 3.844 12.234 3.9C12.226 3.956 12.214 4.02 12.198 4.092C12.19 4.156 12.186 4.204 12.186 4.236L12.114 4.98C12.05 5.66 12.002 6.244 11.97 6.732C11.946 7.276 11.954 7.8 11.994 8.304C12.01 8.488 11.962 8.648 11.85 8.784C11.738 8.912 11.586 8.964 11.394 8.94C11.282 8.924 11.19 8.884 11.118 8.82C11.046 8.748 10.998 8.668 10.974 8.58C10.958 8.492 10.946 8.396 10.938 8.292C10.93 8.18 10.93 8.08 10.938 7.992C10.954 7.544 11.006 7.056 11.094 6.528C10.718 7.208 10.354 7.764 10.002 8.196C9.59397 8.708 9.14597 8.968 8.65797 8.976C8.32197 8.984 8.03397 8.884 7.79397 8.676C7.55397 8.46 7.38597 8.204 7.28997 7.908C7.20197 7.612 7.16597 7.308 7.18197 6.996C7.25397 5.884 7.64597 4.868 8.35797 3.948C9.25397 2.78 10.11 2.332 10.926 2.604C11.126 2.668 11.31 2.744 11.478 2.832C11.654 2.92 11.822 3.048 11.982 3.216C12.15 3.384 12.234 3.564 12.234 3.756ZM10.326 5.52C10.326 5.512 10.334 5.496 10.35 5.472C10.334 5.496 10.326 5.512 10.326 5.52ZM11.094 3.696C11.118 3.64 11.126 3.608 11.118 3.6C11.118 3.592 11.106 3.564 11.082 3.516C11.002 3.404 10.886 3.344 10.734 3.336C10.59 3.32 10.454 3.336 10.326 3.384C10.198 3.424 10.078 3.48 9.96597 3.552C9.78197 3.672 9.60597 3.816 9.43797 3.984C9.26997 4.152 9.11797 4.332 8.98197 4.524C8.84597 4.716 8.72197 4.916 8.60997 5.124C8.50597 5.332 8.41397 5.544 8.33397 5.76C8.14997 6.264 8.06597 6.72 8.08197 7.128C8.08197 7.264 8.10597 7.4 8.15397 7.536C8.20197 7.672 8.27397 7.788 8.36997 7.884C8.47397 7.98 8.60197 7.976 8.75397 7.872C8.81797 7.832 8.87797 7.784 8.93397 7.728C8.99797 7.672 9.05397 7.616 9.10197 7.56C9.14997 7.496 9.20197 7.424 9.25797 7.344C9.31397 7.264 9.35797 7.196 9.38997 7.14C9.42997 7.076 9.47397 7 9.52197 6.912C9.57797 6.824 9.61797 6.76 9.64197 6.72C9.75397 6.536 9.98997 6.12 10.35 5.472C10.35 5.464 10.354 5.456 10.362 5.448C10.394 5.384 10.482 5.192 10.626 4.872C10.714 4.68 10.818 4.42 10.938 4.092C10.946 4.068 10.966 4.008 10.998 3.912C11.038 3.816 11.07 3.744 11.094 3.696ZM18.2976 7.176C18.3056 7.528 18.1896 7.876 17.9496 8.22C17.7176 8.564 17.4416 8.808 17.1216 8.952C16.8096 9.088 16.4776 9.148 16.1256 9.132C15.7816 9.124 15.4576 9.04 15.1536 8.88C14.5136 8.552 14.2376 7.904 14.3256 6.936C14.3896 6.168 14.4776 5.292 14.5896 4.308C14.5576 4.308 14.4856 4.312 14.3736 4.32C14.2616 4.328 14.1656 4.332 14.0856 4.332C14.0136 4.332 13.9256 4.328 13.8216 4.32C13.7256 4.312 13.6376 4.296 13.5576 4.272C13.4856 4.24 13.4256 4.2 13.3776 4.152C13.2736 4.048 13.2376 3.952 13.2696 3.864C13.3016 3.768 13.3616 3.688 13.4496 3.624C13.5376 3.56 13.6376 3.516 13.7496 3.492C13.8856 3.46 14.1056 3.424 14.4096 3.384C14.4176 3.384 14.4456 3.384 14.4936 3.384C14.5416 3.384 14.5856 3.384 14.6256 3.384C14.6656 3.376 14.6936 3.364 14.7096 3.348C14.7256 3.34 14.7456 3.256 14.7696 3.096C14.8896 2.416 14.9736 1.948 15.0216 1.692C15.0216 1.66 15.0336 1.568 15.0576 1.416C15.0816 1.256 15.1016 1.14 15.1176 1.068C15.1336 0.996 15.1696 0.912 15.2256 0.816C15.2816 0.711999 15.3496 0.631999 15.4296 0.576C15.5736 0.487999 15.7256 0.464 15.8856 0.504C16.0456 0.544 16.1696 0.632 16.2576 0.767999C16.3136 0.847999 16.3416 0.943999 16.3416 1.056C16.3496 1.168 16.3456 1.26 16.3296 1.332C16.3216 1.404 16.2976 1.512 16.2576 1.656C16.2176 1.792 16.1936 1.88 16.1856 1.92C16.1536 2.04 16.0576 2.472 15.8976 3.216C16.2096 3.184 16.4976 3.156 16.7616 3.132C17.0096 3.116 17.1896 3.14 17.3016 3.204C17.4696 3.3 17.5576 3.452 17.5656 3.66C17.5736 3.86 17.5016 4.016 17.3496 4.128C17.3016 4.16 17.2456 4.188 17.1816 4.212C17.1256 4.228 17.0776 4.24 17.0376 4.248C17.0056 4.248 16.9416 4.248 16.8456 4.248C16.7576 4.248 16.7096 4.252 16.7016 4.26C16.5096 4.268 16.2816 4.276 16.0176 4.284C16.0016 4.284 15.9696 4.284 15.9216 4.284C15.8736 4.276 15.8336 4.276 15.8016 4.284C15.7776 4.284 15.7496 4.288 15.7176 4.296C15.6856 4.304 15.6616 4.32 15.6456 4.344C15.6376 4.36 15.6256 4.388 15.6096 4.428C15.6016 4.468 15.5936 4.516 15.5856 4.572C15.5856 4.62 15.5856 4.652 15.5856 4.668C15.5216 4.972 15.4736 5.204 15.4416 5.364C15.4336 5.42 15.4136 5.524 15.3816 5.676C15.3576 5.82 15.3376 5.928 15.3216 6C15.3136 6.072 15.2976 6.176 15.2736 6.312C15.2576 6.44 15.2496 6.548 15.2496 6.636C15.2496 6.724 15.2496 6.828 15.2496 6.948C15.2576 7.06 15.2736 7.168 15.2976 7.272C15.3296 7.368 15.3696 7.464 15.4176 7.56C15.4816 7.704 15.5536 7.808 15.6336 7.872C15.7136 7.928 15.8336 7.968 15.9936 7.992C16.4256 8.056 16.7456 7.948 16.9536 7.668C16.9936 7.612 17.0656 7.46 17.1696 7.212C17.2736 6.964 17.3936 6.804 17.5296 6.732C17.6976 6.636 17.8656 6.64 18.0336 6.744C18.2016 6.84 18.2896 6.984 18.2976 7.176ZM20.4439 1.068V1.08V1.068ZM20.4439 1.08C20.4439 1.096 20.4439 1.108 20.4439 1.116C20.4439 1.092 20.4439 1.08 20.4439 1.08ZM26.1799 7.956C26.1879 8.284 26.1919 8.468 26.1919 8.508C26.1919 8.644 26.1599 8.748 26.0959 8.82C26.0319 8.908 25.9439 8.968 25.8319 9C25.7279 9.04 25.6239 9.044 25.5199 9.012C25.2879 8.94 25.1679 8.74 25.1599 8.412C25.1599 8.388 25.1559 8.044 25.1479 7.38C25.1399 6.836 25.1319 5.464 25.1239 3.264C25.0919 3.352 24.6799 4.32 23.8879 6.168C23.8479 6.264 23.7639 6.448 23.6359 6.72C23.5079 6.992 23.4159 7.204 23.3599 7.356C23.3119 7.484 23.2679 7.592 23.2279 7.68C23.1959 7.76 23.1319 7.852 23.0359 7.956C22.9479 8.06 22.8559 8.108 22.7599 8.1C22.6319 8.076 22.5039 7.94 22.3759 7.692C22.2959 7.516 22.2159 7.3 22.1359 7.044C22.0239 6.652 21.8999 6.072 21.7639 5.304C21.5159 3.912 21.3519 3.008 21.2719 2.592C20.9679 3.944 20.6999 5.08 20.4679 6C20.2999 6.656 20.1679 7.152 20.0719 7.488C20.0319 7.624 19.9639 7.824 19.8679 8.088C19.7799 8.344 19.7199 8.532 19.6879 8.652C19.6479 8.788 19.5679 8.876 19.4479 8.916C19.3279 8.948 19.2159 8.928 19.1119 8.856C19.0079 8.776 18.9559 8.664 18.9559 8.52C18.9559 8.424 18.9799 8.192 19.0279 7.824C19.0759 7.504 19.1159 7.244 19.1479 7.044C19.3239 6.108 19.5319 5.1 19.7719 4.02C19.8519 3.644 19.9679 3.124 20.1199 2.46C20.1279 2.428 20.1839 2.18 20.2879 1.716C20.2959 1.692 20.3039 1.652 20.3119 1.596C20.3279 1.54 20.3399 1.492 20.3479 1.452C20.3639 1.412 20.3759 1.372 20.3839 1.332C20.3839 1.324 20.3879 1.304 20.3959 1.272C20.4119 1.232 20.4239 1.196 20.4319 1.164C20.4399 1.124 20.4439 1.096 20.4439 1.08C20.4759 0.992 20.5039 0.924 20.5279 0.875999C20.5599 0.82 20.6039 0.768 20.6599 0.719999C20.7239 0.664 20.7999 0.628 20.8879 0.611999C21.1199 0.563999 21.3079 0.631999 21.4519 0.816C21.5639 0.96 21.6839 1.196 21.8119 1.524C21.9239 1.804 22.0239 2.072 22.1119 2.328C22.2239 2.672 22.3279 3.032 22.4239 3.408C22.5279 3.776 22.6399 4.228 22.7599 4.764C22.8879 5.3 22.9759 5.66 23.0239 5.844C23.2239 5.244 23.5199 4.432 23.9119 3.408C24.2399 2.552 24.5319 1.848 24.7879 1.296C24.9239 1 25.0799 0.788 25.2559 0.659999C25.3919 0.572 25.5319 0.552 25.6759 0.599999C25.8199 0.648 25.9199 0.748 25.9759 0.9C25.9999 0.956 26.0199 1.156 26.0359 1.5C26.0439 1.66 26.0519 1.84 26.0599 2.04C26.0679 2.2 26.0719 2.432 26.0719 2.736C26.0799 3.04 26.0839 3.216 26.0839 3.264C26.0919 3.424 26.0959 3.62 26.0959 3.852C26.1039 4.084 26.1119 4.284 26.1199 4.452C26.1279 4.62 26.1319 4.816 26.1319 5.04C26.1399 5.256 26.1439 5.452 26.1439 5.628C26.1599 6.548 26.1719 7.324 26.1799 7.956ZM32.6793 2.928C32.7273 3.032 32.7393 3.188 32.7153 3.396C32.6913 3.596 32.6633 3.756 32.6313 3.876C32.6073 3.988 32.5633 4.148 32.4993 4.356C32.4433 4.556 32.4073 4.708 32.3913 4.812C32.1913 5.732 32.0553 6.392 31.9833 6.792C31.9273 7.112 31.8753 7.444 31.8273 7.788C31.8193 7.82 31.8073 7.908 31.7913 8.052C31.7833 8.196 31.7673 8.316 31.7433 8.412C31.7273 8.5 31.6993 8.58 31.6593 8.652C31.5793 8.804 31.4593 8.896 31.2993 8.928C31.1473 8.96 31.0033 8.932 30.8673 8.844C30.7393 8.756 30.6673 8.628 30.6513 8.46C30.3153 8.684 29.9593 8.808 29.5833 8.832C29.2073 8.856 28.8593 8.772 28.5393 8.58C28.2193 8.38 27.9833 8.092 27.8313 7.716C27.6953 7.388 27.6153 6.996 27.5913 6.54C27.5753 6.084 27.5873 5.7 27.6273 5.388C27.6673 5.076 27.7313 4.676 27.8193 4.188C27.8673 3.94 27.9393 3.628 28.0353 3.252C28.1073 2.996 28.2153 2.832 28.3593 2.76C28.5753 2.64 28.7673 2.656 28.9353 2.808C29.1033 2.96 29.1673 3.152 29.1273 3.384C29.0953 3.56 29.0273 3.844 28.9233 4.236C28.8193 4.62 28.7513 4.92 28.7193 5.136C28.6233 5.744 28.5873 6.252 28.6113 6.66C28.6433 7.196 28.7793 7.556 29.0193 7.74C29.1073 7.812 29.2193 7.856 29.3553 7.872C29.4193 7.888 29.4953 7.892 29.5833 7.884C29.7673 7.868 29.9313 7.824 30.0753 7.752C30.2273 7.68 30.3513 7.58 30.4473 7.452C30.5513 7.316 30.6393 7.184 30.7113 7.056C30.7913 6.92 30.8593 6.752 30.9153 6.552C30.9793 6.352 31.0273 6.184 31.0593 6.048C31.0913 5.912 31.1273 5.736 31.1673 5.52C31.2153 5.304 31.2513 5.148 31.2753 5.052C31.4913 4.156 31.6673 3.548 31.8033 3.228C31.9393 2.924 32.0833 2.752 32.2353 2.712C32.3313 2.68 32.4233 2.684 32.5113 2.724C32.5993 2.764 32.6553 2.832 32.6793 2.928ZM37.5776 2.988C37.6016 3.092 37.5856 3.196 37.5296 3.3C37.4816 3.404 37.4096 3.484 37.3136 3.54C37.2576 3.564 37.2016 3.58 37.1456 3.588C37.0896 3.596 37.0296 3.592 36.9656 3.576C36.9016 3.552 36.8496 3.536 36.8096 3.528C36.7696 3.512 36.7136 3.484 36.6416 3.444C36.3936 3.324 36.1816 3.244 36.0056 3.204C35.9656 3.196 35.8776 3.192 35.7416 3.192C35.5736 3.184 35.4336 3.24 35.3216 3.36C35.2176 3.472 35.1576 3.58 35.1416 3.684C35.1336 3.788 35.1576 3.92 35.2136 4.08C35.2616 4.24 35.3296 4.38 35.4176 4.5C35.5136 4.612 35.6616 4.752 35.8616 4.92C36.0696 5.088 36.1896 5.188 36.2216 5.22C36.6776 5.644 36.9496 6.028 37.0376 6.372C37.2296 7.188 37.1216 7.812 36.7136 8.244C36.4256 8.556 36.0376 8.764 35.5496 8.868C35.0696 8.972 34.6296 8.96 34.2296 8.832C33.7816 8.704 33.4456 8.46 33.2216 8.1C33.1016 7.9 33.0336 7.692 33.0176 7.476C33.0176 7.436 33.0176 7.392 33.0176 7.344C33.0256 7.296 33.0336 7.244 33.0416 7.188C33.0496 7.124 33.0576 7.076 33.0656 7.044C33.0976 6.956 33.1896 6.888 33.3416 6.84C33.5016 6.784 33.6536 6.792 33.7976 6.864C33.9496 6.928 34.0336 7.06 34.0496 7.26C34.0576 7.524 34.1616 7.708 34.3616 7.812C34.4256 7.852 34.5056 7.88 34.6016 7.896C34.6336 7.904 34.7016 7.916 34.8056 7.932C35.4936 8.036 35.9256 7.904 36.1016 7.536C36.1016 7.536 36.1016 7.524 36.1016 7.5C36.1096 7.476 36.1136 7.444 36.1136 7.404C36.1216 7.356 36.1256 7.304 36.1256 7.248C36.1336 7.184 36.1296 7.112 36.1136 7.032C36.1056 6.952 36.0896 6.872 36.0656 6.792C36.0496 6.704 36.0176 6.612 35.9696 6.516C35.9216 6.412 35.8616 6.312 35.7896 6.216C35.4696 5.744 35.0776 5.348 34.6136 5.028C34.6216 5.028 34.6256 5.028 34.6256 5.028C34.4416 4.836 34.3016 4.612 34.2056 4.356C34.1176 4.092 34.0776 3.836 34.0856 3.588C34.1016 3.332 34.1776 3.092 34.3136 2.868C34.4576 2.636 34.6536 2.452 34.9016 2.316C35.3256 2.1 35.7976 2.056 36.3176 2.184C37.1016 2.384 37.5216 2.652 37.5776 2.988ZM35.1536 3.9C35.1536 3.876 35.1536 3.86 35.1536 3.852C35.1536 3.884 35.1536 3.9 35.1536 3.9ZM35.1656 3.576C35.1656 3.568 35.1656 3.564 35.1656 3.564C35.1656 3.556 35.1656 3.552 35.1656 3.552C35.1656 3.56 35.1656 3.568 35.1656 3.576ZM39.4423 2.844C39.5703 2.86 39.6703 2.908 39.7423 2.988C39.8223 3.06 39.8663 3.16 39.8743 3.288C39.8903 3.408 39.8943 3.512 39.8863 3.6C39.8783 3.688 39.8623 3.804 39.8383 3.948C39.7743 4.348 39.6903 4.888 39.5863 5.568C39.5623 5.776 39.5183 6.076 39.4543 6.468C39.3903 6.86 39.3543 7.08 39.3463 7.128C39.3223 7.24 39.3103 7.476 39.3103 7.836C39.3103 8.188 39.2863 8.42 39.2383 8.532C39.1823 8.708 39.0663 8.836 38.8903 8.916C38.7223 8.996 38.5543 9 38.3863 8.928C38.2903 8.888 38.2143 8.832 38.1583 8.76C38.1103 8.688 38.0743 8.624 38.0503 8.568C38.0263 8.512 38.0183 8.428 38.0263 8.316C38.0343 8.204 38.0423 8.124 38.0503 8.076C38.0583 8.028 38.0743 7.94 38.0983 7.812C38.1303 7.652 38.1943 7.344 38.2903 6.888C38.3863 6.432 38.4623 6.044 38.5183 5.724C38.5743 5.404 38.6183 5.092 38.6503 4.788C38.6583 4.676 38.6663 4.528 38.6743 4.344C38.6903 4.16 38.7063 3.988 38.7223 3.828C38.7383 3.668 38.7583 3.52 38.7823 3.384C38.8063 3.208 38.8783 3.068 38.9983 2.964C39.1183 2.852 39.2663 2.812 39.4423 2.844ZM40.1023 0.804C40.2223 0.891999 40.2943 1.012 40.3183 1.164C40.3423 1.316 40.3183 1.46 40.2463 1.596C40.1823 1.732 40.0943 1.856 39.9823 1.968C39.8703 2.072 39.7423 2.132 39.5983 2.148C39.4543 2.156 39.3143 2.108 39.1783 2.004C39.0583 1.908 38.9863 1.784 38.9623 1.632C38.9383 1.48 38.9583 1.34 39.0223 1.212C39.0863 1.076 39.1743 0.956 39.2863 0.852C39.3983 0.74 39.5263 0.68 39.6703 0.672C39.8143 0.664 39.9583 0.707999 40.1023 0.804ZM42.0081 5.964C41.9681 6.164 41.9441 6.352 41.9361 6.528C41.9201 6.64 41.9481 6.836 42.0201 7.116C42.0921 7.388 42.2081 7.572 42.3681 7.668C42.3521 7.66 42.3361 7.652 42.3201 7.644C42.5201 7.756 42.7401 7.82 42.9801 7.836C43.1721 7.844 43.2921 7.84 43.3401 7.824C43.3481 7.816 43.4001 7.756 43.4961 7.644C43.6321 7.484 43.7321 7.328 43.7961 7.176C43.8121 7.136 43.8361 7.068 43.8681 6.972C43.9081 6.876 43.9401 6.796 43.9641 6.732C43.9961 6.66 44.0361 6.588 44.0841 6.516C44.1321 6.436 44.1801 6.376 44.2281 6.336C44.3401 6.248 44.4761 6.212 44.6361 6.228C44.7961 6.244 44.9201 6.308 45.0081 6.42C45.1121 6.548 45.1561 6.712 45.1401 6.912C45.1321 7.104 45.0921 7.292 45.0201 7.476C44.9481 7.652 44.8641 7.804 44.7681 7.932C44.6401 8.1 44.4961 8.252 44.3361 8.388C44.1761 8.516 43.9961 8.628 43.7961 8.724C43.6041 8.812 43.4081 8.872 43.2081 8.904C42.8961 8.96 42.5801 8.944 42.2601 8.856C41.9401 8.768 41.6561 8.624 41.4081 8.424C40.9201 8.024 40.6881 7.452 40.7121 6.708C40.7281 5.98 40.8681 5.272 41.1321 4.584C41.4041 3.888 41.7921 3.328 42.2961 2.904C42.4721 2.76 42.6561 2.644 42.8481 2.556C43.0481 2.46 43.2561 2.396 43.4721 2.364C43.6961 2.332 43.9161 2.352 44.1321 2.424C44.4521 2.528 44.7481 2.732 45.0201 3.036C45.2921 3.34 45.4281 3.652 45.4281 3.972C45.4281 4.076 45.4121 4.168 45.3801 4.248C45.3561 4.328 45.3081 4.4 45.2361 4.464C45.1721 4.52 45.0921 4.552 44.9961 4.56C44.7801 4.584 44.5801 4.464 44.3961 4.2C44.3801 4.168 44.3561 4.128 44.3241 4.08C44.2921 4.024 44.2641 3.98 44.2401 3.948C44.2241 3.908 44.1961 3.868 44.1561 3.828C44.1241 3.78 44.0921 3.744 44.0601 3.72C44.0361 3.688 44.0001 3.656 43.9521 3.624C43.9121 3.592 43.8681 3.572 43.8201 3.564C43.7801 3.556 43.7281 3.548 43.6641 3.54C43.6001 3.524 43.5321 3.528 43.4601 3.552C43.4441 3.56 43.4361 3.564 43.4361 3.564C43.2121 3.604 43.0001 3.768 42.8001 4.056C42.6001 4.336 42.4361 4.632 42.3081 4.944C42.1641 5.272 42.0641 5.612 42.0081 5.964ZM42.0081 7.344C42.0081 7.344 42.0041 7.344 41.9961 7.344C41.9961 7.336 41.9961 7.328 41.9961 7.32C42.0041 7.336 42.0081 7.344 42.0081 7.344Z" fill="white"/>
</svg>
